<svg id="visual" viewBox="0 0 600 900" width="600" height="900" xmlns="http://www.w3.org/2000/svg" xmlns:xlink="http://www.w3.org/1999/xlink" version="1.1"><path d="M0 392L14.3 402.2C28.7 412.3 57.3 432.7 85.8 442.3C114.3 452 142.7 451 171.2 481.8C199.7 512.7 228.3 575.3 257 603.5C285.7 631.7 314.3 625.3 343 597.5C371.7 569.7 400.3 520.3 428.8 531.7C457.3 543 485.7 615 514.2 600C542.7 585 571.3 483 585.7 432L600 381L600 901L585.7 901C571.3 901 542.7 901 514.2 901C485.7 901 457.3 901 428.8 901C400.3 901 371.7 901 343 901C314.3 901 285.7 901 257 901C228.3 901 199.7 901 171.2 901C142.7 901 114.3 901 85.8 901C57.3 901 28.7 901 14.3 901L0 901Z" fill="#5c5cf0" stroke-linecap="round" stroke-linejoin="miter"></path></svg>